<?xml version="1.0" standalone="no"?>
<!DOCTYPE svg PUBLIC "-//W3C//DTD SVG 20010904//EN"
 "http://www.w3.org/TR/2001/REC-SVG-20010904/DTD/svg10.dtd">
<svg version="1.0" xmlns="http://www.w3.org/2000/svg"
 width="128.000000pt" height="128.000000pt" viewBox="0 0 128.000000 128.000000"
 preserveAspectRatio="xMidYMid meet">
<metadata>
Created by potrace 1.14, written by Peter Selinger 2001-2017
</metadata>
<g transform="translate(0.000000,128.000000) scale(0.100000,-0.100000)"
fill="#000000" stroke="none">
<path d="M345 1041 c-52 -13 -91 -39 -140 -93 -100 -111 -148 -243 -149 -408
-1 -111 20 -183 67 -236 40 -47 77 -64 134 -64 70 1 120 28 189 103 34 37 74
73 90 82 34 17 156 20 201 5 16 -6 57 -42 91 -79 71 -79 127 -111 196 -111 56
0 93 17 133 64 71 81 91 265 44 416 -42 139 -129 258 -221 306 -51 26 -131 24
-170 -4 -92 -68 -100 -72 -170 -72 -69 0 -71 1 -167 69 -33 23 -86 32 -128 22z
m545 -268 c36 -46 8 -103 -50 -103 -34 0 -57 18 -65 50 -9 36 27 80 65 80 19
0 36 -9 50 -27z m-492 5 c7 -7 12 -25 12 -40 0 -24 4 -28 29 -28 34 0 54 -20
49 -52 -2 -18 -11 -24 -38 -28 -31 -4 -36 -9 -40 -40 -4 -27 -10 -36 -28 -38
-32 -5 -52 15 -52 49 0 25 -4 29 -28 29 -30 0 -52 16 -52 36 0 21 30 44 56 44
19 0 24 5 24 24 0 43 42 70 68 44z m616 -129 c55 -43 6 -134 -60 -112 -51 17
-59 104 -11 123 33 13 42 12 71 -11z"/>
</g>
</svg>
