<?xml version="1.0" standalone="no"?>
<!DOCTYPE svg PUBLIC "-//W3C//DTD SVG 20010904//EN"
 "http://www.w3.org/TR/2001/REC-SVG-20010904/DTD/svg10.dtd">
<svg version="1.0" xmlns="http://www.w3.org/2000/svg"
 width="644.000000pt" height="644.000000pt" viewBox="0 0 644.000000 644.000000"
 preserveAspectRatio="xMidYMid meet">
<metadata>
Created by potrace 1.14, written by Peter Selinger 2001-2017
</metadata>
<g transform="translate(0.000000,644.000000) scale(0.100000,-0.100000)"
fill="#000000" stroke="none">
<path d="M5039 5587 c-49 -18 -86 -53 -377 -346 -1365 -1375 -1283 -1298
-1387 -1316 -105 -18 -155 -1 -380 135 -66 40 -140 84 -164 97 -24 14 -132 78
-240 142 -108 64 -203 120 -211 124 -8 4 -44 25 -79 47 -34 22 -65 40 -67 40
-3 0 -28 15 -57 33 -29 19 -72 45 -97 59 -112 63 -195 112 -200 117 -9 10 -64
42 -83 48 -9 3 -17 9 -17 14 0 5 -6 9 -12 9 -7 0 -41 18 -76 40 -34 22 -67 40
-72 40 -6 0 -10 5 -10 10 0 6 -4 10 -9 10 -6 0 -61 31 -124 68 -63 38 -121 72
-128 76 -8 3 -27 15 -44 25 -151 97 -244 104 -372 26 -29 -18 -106 -125 -179
-250 -16 -27 -35 -59 -41 -70 -53 -89 -156 -318 -203 -450 -34 -96 -77 -239
-84 -278 -3 -15 -8 -37 -11 -48 -4 -12 -9 -31 -11 -42 -2 -12 -8 -44 -14 -72
-11 -52 -14 -69 -25 -145 -4 -25 -9 -58 -11 -75 -3 -16 -7 -67 -9 -112 -2 -46
-6 -86 -8 -90 -5 -11 0 -311 6 -393 7 -89 16 -164 27 -235 10 -63 13 -78 30
-160 6 -27 12 -59 14 -70 19 -94 104 -360 145 -450 5 -11 15 -35 23 -54 16
-41 113 -236 153 -306 150 -267 389 -559 630 -771 85 -74 100 -82 161 -89 80
-8 166 42 197 115 7 17 11 302 12 880 1 470 5 866 9 880 33 101 142 143 240
93 19 -10 99 -56 178 -103 78 -47 148 -86 155 -88 7 -2 13 -8 13 -13 0 -5 4
-9 9 -9 5 0 110 -60 233 -133 122 -73 231 -136 241 -140 9 -3 17 -11 17 -17 0
-5 8 -10 19 -10 10 0 24 -7 31 -15 7 -8 19 -15 26 -15 8 0 14 -3 14 -7 0 -5
10 -13 23 -19 44 -21 122 -67 138 -80 8 -8 19 -14 23 -14 4 0 21 -9 37 -20 75
-54 197 -69 286 -35 61 23 102 56 238 194 463 471 1114 1121 1134 1131 48 25
115 12 162 -30 45 -40 43 -1 44 -1235 1 -1083 2 -1172 18 -1202 36 -68 86
-101 164 -110 53 -6 112 20 178 78 89 78 284 279 343 352 31 40 59 74 62 77
18 17 193 272 216 315 5 11 30 56 54 100 71 129 121 238 165 355 15 41 32 84
37 95 5 12 10 27 12 35 1 8 14 53 28 100 23 75 35 119 38 142 1 4 6 22 11 40
5 18 11 44 14 58 3 14 7 36 10 50 3 14 8 41 10 60 3 19 7 44 10 55 2 11 7 49
11 85 3 36 9 94 14 130 7 64 4 486 -4 545 -2 17 -7 50 -10 75 -3 25 -13 86
-21 135 -9 50 -18 101 -20 115 -8 49 -26 116 -61 235 -8 28 -16 57 -18 65 -42
150 -179 451 -284 625 -26 44 -54 91 -62 105 -8 14 -18 27 -21 30 -3 3 -21 28
-39 55 -41 60 -41 60 -80 106 -16 20 -30 40 -30 44 0 4 -8 15 -18 24 -9 9 -40
43 -67 76 -94 113 -259 269 -310 294 -65 32 -143 35 -216 8z"/>
</g>
</svg>
